# xmcd
#
# Track frame offsets:
#	150
#	19200
#	33529
#	45540
#	59088
#	75060
#	94309
#	106252
#	131437
#	147672
#	167131
#	186426
#	200899
#	215535
#	238390
#	254533
#	285820
#	310204
#	330808
#
# Disc length: 4791 seconds
#
# Revision: 4
# Processed by: cddbd v1.5.2PL0 Copyright (c) Steve Scherf et al.
# Submitted via: EZCDAudioConverter 1.3.4.1
#
DISCID=1912b513
DTITLE=Traffic - Gold 1/2
DYEAR=2005
DGENRE=
TTITLE0=Paper Sun
TTITLE1=Dealer
TTITLE2=Coloured Rain
TTITLE3=Hole In My Shoe
TTITLE4=No Face, No Name, No Number
TTITLE5=Heaven Is In Your Mind
TTITLE6=Smiling Phases
TTITLE7=Dear Mr. Fantasy
TTITLE8=You Can All Join In
TTITLE9=Pearly Queen
TTITLE10=Feelin' Alright
TTITLE11=Who Knows What Tomorrow May Bring
TTITLE12=Forty Thousand Headmen
TTITLE13=Shanghai Noodle Factory
TTITLE14=Medicated Goo
TTITLE15=Glad
TTITLE16=Freedom Rider
TTITLE17=Empty Pages
TTITLE18=John Barleycorn
EXTD=
EXTT0=
EXTT1=
EXTT2=
EXTT3=
EXTT4=
EXTT5=
EXTT6=
EXTT7=
EXTT8=
EXTT9=
EXTT10=
EXTT11=
EXTT12=
EXTT13=
EXTT14=
EXTT15=
EXTT16=
EXTT17=
EXTT18=
PLAYORDER=
